# xmcd CD database file
#
# Track frame offsets:
#	150
#	23681
#	41575
#	54345
#	67950
#	84418
#	104602
#	124182
#	144193
#	160185
#	180048
#	195201
#	208182
#
# Disc length: 3005 seconds
#
# Revision: 0
# Processed by: cddbd v1.5.2PL0 Copyright (c) Steve Scherf et al.
# Submitted via: CDex 1.70beta2
#
DISCID=9e0bbb0d
DTITLE=Bryn Haworth - Water From the Rock
DYEAR=2002
DGENRE=Blues
TTITLE0=Mountain Mover
TTITLE1=Egypt
TTITLE2=I Can Do All Things
TTITLE3=The Glory Zone
TTITLE4=All Things Work Together
TTITLE5=Slipping And Falling
TTITLE6=Waiting
TTITLE7=Word of Our God
TTITLE8=Victory Song
TTITLE9=Lord I Love Your Word
TTITLE10=Water From the Rock
TTITLE11=Land of the Living 
TTITLE12=When This Passing World Is Done 
EXTD=YEAR: 2002
EXTT0=
EXTT1=
EXTT2=
EXTT3=
EXTT4=
EXTT5=
EXTT6=
EXTT7=
EXTT8=
EXTT9=
EXTT10=
EXTT11=
EXTT12=
PLAYORDER=
